<?xml version="1.0" standalone="no"?>
<!DOCTYPE svg PUBLIC "-//W3C//DTD SVG 20010904//EN"
 "http://www.w3.org/TR/2001/REC-SVG-20010904/DTD/svg10.dtd">
<svg version="1.0" xmlns="http://www.w3.org/2000/svg"
 width="447.000000pt" height="543.000000pt" viewBox="0 0 447.000000 543.000000"
 preserveAspectRatio="xMidYMid meet">

<g transform="translate(0.000000,543.000000) scale(0.100000,-0.100000)"
fill="#000000" stroke="none">
<path d="M2489 5415 c-29 -15 -77 -85 -104 -150 -98 -234 -100 -482 -5 -670
17 -33 69 -112 116 -175 47 -63 101 -147 120 -187 91 -187 81 -427 -24 -589
-21 -32 -77 -105 -124 -162 -113 -136 -141 -191 -178 -348 -35 -150 -87 -264
-154 -340 -25 -28 -106 -97 -180 -153 -125 -94 -246 -204 -246 -224 0 -5 18 7
40 26 53 45 149 92 231 113 313 80 690 -228 734 -601 l7 -60 28 33 c15 18 40
59 56 90 27 54 29 64 29 177 l0 120 -65 185 -65 185 0 135 c0 105 4 141 16
164 l16 28 27 -46 c40 -68 132 -138 228 -172 l39 -14 -35 42 c-75 87 -111 206
-103 337 4 72 10 95 43 159 23 44 54 87 75 104 l36 29 49 -21 c27 -12 87 -34
134 -50 102 -34 121 -56 146 -167 29 -133 13 -300 -41 -427 -15 -35 51 23 116
101 138 167 167 257 133 419 -6 31 -5 32 48 48 71 20 133 66 166 123 15 25 46
67 69 93 75 83 100 180 82 315 -14 102 -41 166 -90 210 l-39 35 0 84 c0 47 -5
107 -11 135 -9 43 -7 60 14 128 14 43 28 99 31 125 l7 46 54 -24 c65 -30 128
-35 151 -12 14 14 13 20 -12 69 -15 30 -42 94 -60 142 -58 158 -75 171 -219
174 -55 1 -137 5 -182 9 -72 6 -87 4 -127 -15 -58 -28 -99 -84 -122 -166 l-19
-65 -112 0 c-61 0 -119 -3 -127 -6 -12 -5 -19 3 -27 26 -73 209 -316 542 -453
621 -57 32 -79 35 -117 14z m134 -284 c57 -55 121 -150 147 -220 l20 -50 -43
29 c-23 15 -53 32 -67 36 -22 6 -20 2 17 -42 53 -65 109 -171 67 -129 -31 30
-60 45 -110 54 l-49 9 30 -22 c43 -31 84 -75 102 -110 15 -30 15 -31 -3 -14
-23 20 -55 33 -109 42 l-40 8 49 -36 c77 -55 78 -65 2 -59 -37 3 -71 1 -82 -5
-17 -10 -16 -11 8 -12 15 0 38 -4 53 -10 25 -9 25 -11 10 -39 -8 -17 -15 -49
-15 -72 l0 -43 -36 35 c-45 43 -99 155 -115 237 -25 133 4 348 61 439 24 40
38 37 103 -26z m991 -464 c24 -32 68 -123 49 -102 -5 6 -38 45 -72 88 -54 68
-58 76 -32 63 16 -9 41 -31 55 -49z m-265 -17 c26 -14 56 -91 85 -218 40 -177
63 -209 221 -303 55 -33 110 -67 122 -77 22 -17 22 -17 -34 -13 -73 4 -123
-11 -162 -51 -39 -40 -39 -64 2 -124 28 -41 59 -64 135 -101 9 -4 -30 -61 -60
-90 -45 -44 -102 -65 -173 -66 -101 -1 -188 60 -220 152 -19 58 -19 85 2 46
47 -91 146 -139 235 -114 l43 12 -52 12 c-114 26 -182 112 -183 230 0 28 1 28
23 -15 25 -50 57 -76 107 -85 l35 -7 -34 23 c-77 54 -95 122 -71 281 30 201
-2 365 -96 496 -16 22 -16 22 20 22 21 0 45 -4 55 -10z m302 -176 c23 -25 23
-26 2 -15 -27 14 -68 14 -94 1 -23 -13 -25 -3 -2 22 24 26 65 23 94 -8z m23
-153 c10 -16 -5 -41 -24 -41 -23 0 -34 16 -26 35 6 16 42 20 50 6z m-487 -37
c3 -8 -1 -22 -9 -30 -12 -12 -17 -12 -33 0 -16 12 -17 16 -6 30 17 20 40 21
48 0z m-60 -120 c19 -5 39 -1 65 13 l38 21 -15 -28 c-14 -26 -39 -40 -78 -40
-20 0 -77 51 -77 69 0 6 9 2 20 -9 11 -11 32 -23 47 -26z m658 -178 c52 -22
43 -33 -23 -28 -38 3 -70 -1 -95 -11 -20 -9 -37 -12 -37 -8 0 15 40 43 72 51
47 11 45 11 83 -4z m73 -208 c-5 -72 -32 -138 -57 -138 -10 0 -28 11 -40 24
-21 22 -21 27 -10 65 7 22 20 43 29 46 9 3 29 19 45 35 16 17 31 30 33 30 2 0
2 -28 0 -62z m-134 -207 c22 -24 12 -44 -38 -89 -115 -101 -389 -72 -451 47
l-14 28 65 -23 c118 -43 290 -29 374 30 43 31 43 31 64 7z"/>
<path d="M2105 5333 c-585 -37 -1129 -283 -1504 -680 -197 -207 -357 -461
-440 -697 -57 -162 -59 -209 -6 -222 30 -7 75 18 75 43 0 8 14 57 31 107 124
364 414 736 749 961 338 227 697 345 1121 371 l116 7 22 44 c34 69 31 73 -46
71 -38 -1 -90 -3 -118 -5z"/>
<path d="M2946 5197 c4 -6 27 -43 52 -82 44 -69 46 -71 156 -123 l111 -53 38
42 c31 34 35 45 25 55 -41 40 -398 191 -382 161z"/>
<path d="M1979 5079 c-14 -27 -5 -49 34 -87 l33 -32 37 31 c30 24 37 37 37 65
0 19 -3 35 -7 35 -5 1 -34 3 -66 4 -48 3 -59 0 -68 -16z"/>
<path d="M1772 5048 c-7 -7 -12 -20 -12 -29 0 -9 -7 -22 -15 -29 -19 -16 -19
-44 0 -60 13 -11 25 -11 63 2 44 13 47 17 46 46 -3 62 -50 102 -82 70z"/>
<path d="M1586 4995 c-8 -22 1 -35 25 -35 15 0 20 6 17 22 -4 27 -33 36 -42
13z"/>
<path d="M1444 4945 c-4 -9 -2 -21 4 -27 15 -15 44 -1 40 19 -4 23 -36 29 -44
8z"/>
<path d="M2090 4925 c-15 -18 -6 -46 25 -75 23 -22 25 -22 50 -6 34 23 52 61
37 79 -15 18 -98 19 -112 2z"/>
<path d="M1910 4907 c0 -35 33 -62 58 -48 23 12 37 45 27 61 -3 5 -24 10 -46
10 -34 0 -39 -3 -39 -23z"/>
<path d="M1330 4890 c0 -5 5 -10 10 -10 6 0 10 5 10 10 0 6 -4 10 -10 10 -5 0
-10 -4 -10 -10z"/>
<path d="M1435 4794 c-61 -13 -113 -29 -140 -43 -21 -10 -62 -15 -140 -16
-100 0 -116 -3 -170 -29 -81 -39 -197 -158 -308 -316 -244 -348 -237 -470 50
-925 l50 -81 -5 -97 c-9 -173 27 -317 128 -522 65 -132 183 -296 275 -385 l58
-55 -27 45 c-170 284 -326 713 -326 894 0 37 42 107 90 151 l33 30 -6 -25
c-14 -64 -18 -183 -7 -265 20 -163 60 -263 256 -645 58 -113 126 -266 163
-365 57 -154 106 -265 115 -265 2 0 -3 26 -10 58 -22 90 -29 232 -14 304 28
147 83 238 249 411 129 135 169 188 211 281 49 107 72 217 78 371 5 138 5 139
20 100 9 -24 15 -75 15 -130 0 -129 -33 -251 -108 -402 l-61 -121 38 29 c67
54 155 158 192 229 38 72 66 175 66 246 0 36 5 45 35 68 41 31 174 213 251
342 69 115 96 190 102 286 9 143 -28 231 -186 453 -125 175 -205 258 -292 299
-59 28 -75 31 -170 32 -83 1 -115 5 -152 22 -26 11 -73 26 -104 31 -56 11
-208 13 -249 5z m281 -110 c29 -7 104 -39 166 -69 l113 -56 -53 51 -53 50 38
0 c52 0 131 -22 173 -49 l35 -22 -45 6 -45 6 45 -25 c66 -36 128 -93 166 -152
19 -29 34 -56 34 -59 0 -4 -21 9 -47 28 -72 51 -79 55 -61 28 25 -36 182 -211
185 -207 2 2 -1 16 -7 31 -6 15 -9 29 -7 31 1 2 22 -21 45 -51 44 -56 95 -156
108 -210 6 -27 4 -26 -33 20 -22 28 -56 62 -76 78 l-36 27 35 -75 c44 -95 74
-211 74 -284 l0 -56 -33 75 c-37 85 -97 193 -103 187 -3 -2 0 -17 6 -33 11
-27 30 -156 25 -162 -1 -2 -14 17 -28 41 -47 79 -58 76 -30 -10 13 -43 27
-109 30 -148 l5 -70 -28 45 c-15 25 -49 86 -76 135 -48 88 -49 89 -43 45 4
-25 22 -97 40 -160 18 -63 35 -133 38 -155 6 -36 5 -38 -8 -21 -36 48 -97 182
-120 263 l-25 88 3 -138 c3 -137 3 -137 -15 -103 -28 54 -48 144 -48 213 0 77
18 162 38 182 20 21 10 165 -17 245 -12 33 -21 62 -21 65 0 14 104 -99 127
-137 14 -24 27 -41 29 -39 8 8 -29 114 -57 164 -40 69 -128 157 -190 189 l-52
26 22 -31 c12 -16 28 -49 36 -72 13 -37 13 -40 0 -29 -18 15 -18 16 0 -44 8
-27 15 -68 15 -90 l0 -41 -21 35 c-29 49 -65 73 -118 77 -59 5 -100 -20 -129
-78 l-21 -42 -11 29 c-7 16 -10 57 -8 92 l4 62 -23 -27 c-78 -95 -44 -245 79
-343 26 -22 37 -26 30 -14 -5 11 -13 38 -17 60 l-6 42 49 -25 c44 -22 54 -23
90 -13 23 6 54 24 71 40 16 17 33 30 36 30 11 0 -5 -89 -30 -167 -38 -117 -46
-176 -34 -256 17 -109 9 -172 -28 -209 -64 -64 -191 -37 -294 62 l-44 43 33
11 c81 28 140 105 128 169 -25 131 -223 172 -328 67 -32 -32 -38 -44 -38 -82
0 -60 35 -110 99 -140 28 -12 50 -26 51 -29 0 -14 -75 -79 -121 -104 -100 -54
-190 -41 -225 33 -18 39 -19 58 -9 207 7 102 5 116 -19 190 -28 83 -47 225
-27 193 36 -55 138 -75 199 -38 l33 20 -7 -37 c-4 -21 -11 -49 -16 -61 -8 -22
-6 -22 32 8 105 83 145 207 99 305 -33 70 -45 72 -41 8 4 -58 -4 -123 -16
-123 -4 0 -14 18 -24 40 -47 111 -199 103 -255 -15 -13 -28 -14 -26 -8 38 3
37 10 79 16 94 8 23 8 24 -6 13 -13 -11 -13 -8 0 30 8 24 25 59 37 78 l22 35
-44 -24 c-107 -58 -229 -218 -245 -319 l-6 -35 18 25 c31 43 135 146 128 125
-24 -63 -35 -129 -35 -207 0 -48 4 -88 8 -88 14 0 35 -109 35 -181 0 -41 -8
-89 -22 -130 -42 -124 -46 -121 -44 29 l2 137 -14 -65 c-7 -36 -24 -90 -37
-120 -35 -82 -92 -184 -96 -172 -3 11 15 88 53 227 14 50 25 103 25 119 0 24
-9 13 -47 -60 -25 -49 -56 -108 -67 -131 -12 -24 -24 -43 -28 -43 -13 0 20
194 48 272 7 21 11 38 8 38 -2 0 -22 -28 -44 -62 -40 -61 -40 -61 -39 -27 0
19 8 65 18 103 23 88 9 72 -66 -79 l-55 -110 5 76 c5 78 51 233 88 297 17 29
17 32 1 23 -20 -11 -91 -85 -117 -121 l-17 -25 6 34 c10 53 51 136 103 207 49
67 60 75 43 29 -6 -15 -9 -30 -7 -32 4 -3 123 126 182 196 l20 24 -21 -11
c-12 -7 -43 -27 -68 -47 -25 -19 -46 -31 -46 -27 0 16 60 102 97 139 22 22 64
54 94 72 l54 32 -40 -6 -40 -6 25 20 c30 24 122 51 172 51 l37 0 -52 -50 -52
-50 110 54 c61 31 135 62 165 70 72 18 275 19 346 0z m-456 -514 c0 -24 -26
-38 -42 -22 -16 16 -2 42 22 42 13 0 20 -7 20 -20z m615 1 c0 -8 -8 -19 -17
-25 -22 -13 -44 5 -34 29 7 20 51 16 51 -4z m-238 -347 c30 -30 26 -38 -11
-24 -39 15 -137 12 -168 -4 -20 -11 -28 -12 -28 -3 1 37 41 56 118 57 54 0 66
-3 89 -26z m-101 -419 l7 -40 11 56 11 57 62 -37 c68 -39 73 -52 47 -107 -25
-52 -68 -78 -130 -78 -78 0 -128 41 -141 117 -5 34 -4 36 45 61 28 14 54 31
58 38 9 14 19 -9 30 -67z m299 -298 c-24 -98 -78 -196 -186 -339 -92 -124
-159 -238 -159 -273 0 -32 -18 -10 -96 118 -91 147 -147 255 -176 337 -23 65
-35 273 -20 335 l10 40 1 -36 c2 -77 34 -207 67 -277 20 -41 38 -72 40 -69 2
2 -2 30 -11 63 -16 60 -19 206 -5 259 l8 30 1 -30 c4 -91 62 -247 116 -310
l25 -30 -27 60 c-19 42 -28 82 -31 137 -3 43 -2 78 1 78 3 0 22 -11 42 -24 65
-45 158 -43 218 4 l26 21 7 -36 c9 -48 -10 -145 -41 -208 l-25 -52 25 30 c41
47 78 115 103 185 l23 65 -4 -68 -3 -68 23 45 c25 49 51 149 55 206 1 19 4 -2
5 -48 3 -53 -2 -106 -12 -145z"/>
<path d="M3926 4424 c-27 -26 -18 -59 38 -141 112 -164 209 -384 251 -570 13
-58 29 -111 36 -119 17 -21 63 -17 85 7 18 20 18 23 1 107 -25 122 -90 310
-148 426 -52 104 -144 251 -178 285 -25 25 -63 27 -85 5z"/>
<path d="M352 3808 c-34 -34 6 -90 48 -68 35 19 20 80 -20 80 -9 0 -21 -5 -28
-12z"/>
<path d="M4030 3745 c-19 -23 3 -65 34 -65 32 0 50 24 42 55 -5 19 -13 25 -35
25 -16 0 -34 -7 -41 -15z"/>
<path d="M252 3626 c-167 -55 -236 -261 -147 -437 60 -117 181 -199 295 -199
47 0 49 -1 55 -32 4 -18 16 -51 27 -72 18 -36 18 -38 2 -32 -184 71 -362 -33
-394 -230 -24 -145 66 -320 195 -380 90 -43 223 -26 290 36 11 10 43 21 70 25
l50 6 78 -105 c44 -59 83 -108 87 -111 5 -3 16 11 26 30 21 45 69 82 117 92
l37 8 -240 357 c-222 331 -240 360 -240 401 0 34 8 55 35 93 77 109 86 236 25
360 -77 157 -229 235 -368 190z m168 -111 c76 -39 140 -154 140 -250 0 -49
-35 -121 -71 -148 -94 -68 -246 4 -307 146 -16 38 -15 130 2 170 17 40 64 85
102 97 36 11 97 4 134 -15z m43 -771 c74 -48 127 -173 111 -261 -18 -98 -73
-154 -159 -161 -118 -10 -215 94 -223 239 -5 76 11 120 61 169 56 55 138 60
210 14z m284 -269 c32 -49 72 -112 87 -140 16 -27 38 -65 49 -84 36 -60 5 -26
-68 73 -66 90 -72 95 -106 96 l-36 0 1 79 c1 44 4 77 7 73 4 -4 33 -47 66 -97z"/>
<path d="M4041 3476 c-24 -8 -57 -27 -73 -43 -16 -15 -107 -136 -201 -268
-184 -259 -315 -442 -430 -600 -40 -55 -132 -181 -204 -280 -72 -99 -235 -324
-363 -500 -128 -176 -241 -338 -251 -360 -76 -166 86 -377 291 -379 65 -1 160
20 160 34 0 10 -27 26 -164 101 -106 58 -136 90 -136 145 0 37 8 50 235 359
313 427 720 988 949 1308 157 219 237 322 258 333 53 28 92 12 287 -115 24
-15 24 -15 17 14 -43 177 -226 299 -375 251z m-467 -748 c-39 -67 -291 -420
-481 -675 -51 -69 -88 -99 -63 -52 36 66 456 644 519 712 26 29 37 35 25 15z"/>
<path d="M4138 3283 c-10 -2 -95 -113 -190 -246 -94 -133 -213 -298 -263 -367
-50 -69 -163 -224 -251 -345 -88 -121 -259 -355 -379 -520 -120 -165 -240
-329 -265 -365 -101 -139 -101 -139 81 -231 78 -38 146 -68 152 -66 11 3 -87
80 -180 142 -79 51 -33 44 92 -16 69 -32 127 -59 130 -59 22 0 -10 28 -102 90
-94 63 -127 90 -110 90 2 0 61 -27 130 -60 137 -65 137 -65 137 -50 0 10 -193
142 -222 153 -7 2 -10 8 -6 12 5 5 29 -4 56 -18 74 -40 214 -98 221 -91 9 8
-36 42 -139 105 -49 30 -89 60 -90 68 0 17 10 14 147 -48 165 -75 176 -68 37
24 -47 31 -96 61 -110 67 -13 6 -24 17 -24 25 0 7 1 13 3 13 1 0 63 -27 136
-60 74 -34 136 -58 139 -56 10 11 -21 35 -129 102 -139 86 -134 108 10 40 154
-72 171 -78 171 -64 0 12 -172 128 -212 143 -10 4 -18 13 -18 20 0 8 42 -6
118 -40 140 -62 162 -70 162 -56 0 10 -137 103 -200 136 -16 8 -30 22 -30 30
0 8 2 15 4 15 1 0 54 -24 117 -54 63 -30 128 -57 144 -61 l30 -7 -35 31 c-19
16 -74 53 -122 82 -49 29 -88 56 -88 61 0 12 6 10 48 -11 75 -38 232 -100 236
-92 5 7 -103 82 -197 136 -34 19 -45 31 -38 38 8 8 22 5 48 -7 109 -53 233
-104 238 -97 5 9 -25 30 -163 117 -45 29 -79 55 -74 58 4 2 59 -20 120 -50
112 -54 182 -78 168 -56 -3 6 -60 45 -126 88 -66 42 -117 80 -115 84 3 4 58
-18 122 -50 130 -63 163 -76 163 -62 0 8 -168 125 -218 151 -13 7 -21 15 -18
18 2 3 61 -22 130 -56 119 -58 165 -73 151 -51 -3 5 -60 46 -126 90 -66 44
-116 80 -111 80 5 0 66 -27 135 -60 190 -91 197 -81 21 36 -63 42 -113 78
-112 79 2 2 53 -21 113 -51 128 -62 165 -77 165 -64 0 11 -123 99 -192 138
-27 15 -48 31 -48 36 0 5 6 4 13 -1 22 -17 259 -124 264 -119 3 2 2 10 -2 17
-8 11 -207 144 -229 152 -6 2 -8 8 -4 12 4 4 18 1 30 -7 25 -16 243 -118 252
-118 3 0 6 4 6 8 0 8 -170 126 -217 151 -13 6 -23 16 -23 21 0 5 53 -17 118
-49 133 -66 162 -77 162 -62 0 13 -60 58 -162 119 -43 26 -78 50 -78 55 0 4
28 -7 63 -24 89 -46 219 -100 224 -95 10 10 -11 26 -127 102 -66 44 -116 80
-112 82 5 1 69 -24 143 -58 142 -64 159 -69 138 -43 -13 15 -211 148 -234 157
-5 2 -6 7 -2 12 4 4 36 -6 70 -23 123 -63 216 -102 222 -93 6 10 -30 38 -150
116 -108 69 -100 63 -92 70 3 4 67 -21 142 -55 75 -34 141 -61 148 -58 10 3
-22 26 -191 134 -30 19 -52 36 -50 39 2 2 63 -23 135 -56 131 -60 153 -67 153
-52 0 8 -218 156 -243 165 -7 2 -9 8 -5 12 3 4 35 -7 70 -23 133 -64 221 -102
225 -98 6 6 -62 57 -160 121 -49 31 -86 59 -84 61 3 3 67 -24 143 -60 76 -36
140 -63 142 -61 9 8 -11 25 -123 100 -64 43 -113 80 -111 83 3 2 16 -2 28 -10
36 -23 251 -119 256 -114 9 10 -11 26 -125 101 -139 92 -128 84 -121 91 3 3
26 -5 50 -17 85 -44 238 -107 238 -98 0 9 -154 115 -207 143 -18 9 -33 21 -33
26 0 5 29 -6 64 -25 78 -41 203 -95 222 -95 36 0 -1 29 -178 140 -61 38 -82
60 -60 60 4 0 71 -30 150 -66 78 -37 145 -64 149 -60 12 11 -27 42 -142 112
-124 75 -120 72 -113 79 3 3 67 -24 142 -60 76 -36 144 -65 151 -65 21 0 29
20 13 36 -23 23 -280 184 -292 183 -6 -1 -19 -3 -28 -6z"/>
<path d="M28 2919 c-21 -12 -24 -59 -6 -77 7 -7 21 -12 33 -12 12 0 26 5 33
12 19 19 15 66 -7 78 -24 12 -31 12 -53 -1z"/>
<path d="M4304 2666 c-3 -8 -4 -25 -2 -38 2 -18 9 -23 33 -23 28 0 30 3 30 35
0 31 -3 35 -28 38 -17 2 -29 -2 -33 -12z"/>
<path d="M2053 2428 c-37 -18 -73 -103 -73 -172 0 -99 58 -186 125 -186 67 0
128 88 129 185 0 134 -88 218 -181 173z m7 -68 c-12 -22 -15 -125 -5 -162 6
-22 5 -22 -9 2 -9 14 -16 21 -16 15 0 -5 -10 1 -20 14 -42 50 -11 147 48 150
10 1 10 -4 2 -19z"/>
<path d="M4100 2346 c-15 -19 -9 -56 11 -69 9 -5 28 -7 42 -3 52 13 42 86 -12
86 -16 0 -34 -7 -41 -14z"/>
<path d="M1770 2193 c-101 -39 -129 -236 -45 -320 42 -42 75 -50 122 -26 94
46 111 222 30 309 -31 33 -76 49 -107 37z m-17 -85 c-4 -13 -8 -54 -7 -93 0
-38 -1 -62 -3 -53 -3 9 -10 15 -18 12 -30 -12 -47 75 -24 119 22 42 66 54 52
15z"/>
<path d="M2374 2186 c-63 -28 -102 -136 -83 -226 13 -60 57 -116 98 -125 43
-9 94 17 122 61 20 33 24 52 24 119 0 67 -4 86 -24 119 -14 21 -39 44 -57 52
-40 17 -41 17 -80 0z m-11 -88 c-4 -18 -7 -60 -7 -92 1 -32 -2 -53 -6 -46 -4
7 -13 10 -18 6 -19 -11 -35 34 -29 83 3 30 12 51 27 63 33 27 43 23 33 -14z"/>
<path d="M979 2146 c-43 -29 -64 -75 -62 -132 2 -57 19 -86 114 -195 167 -190
679 -736 707 -753 9 -5 20 -3 30 7 14 14 10 24 -35 99 -232 384 -497 805 -590
936 -42 59 -46 62 -86 62 -28 0 -54 -8 -78 -24z m178 -158 c48 -45 16 -128
-51 -128 -44 0 -76 31 -76 75 0 68 77 100 127 53z"/>
<path d="M610 2145 c-7 -9 -10 -25 -6 -40 6 -22 11 -26 39 -23 25 2 33 8 35
26 7 44 -41 70 -68 37z"/>
<path d="M3975 2148 c-11 -6 -24 -17 -28 -24 -54 -91 -185 -245 -327 -384
-147 -145 -247 -265 -314 -378 -12 -19 139 75 238 149 102 77 262 232 345 334
83 101 171 230 171 249 0 17 -43 66 -57 66 -4 0 -17 -6 -28 -12z"/>
<path d="M406 2074 c-9 -8 -16 -24 -16 -34 0 -53 277 -357 430 -472 137 -103
282 -189 315 -186 37 4 66 48 49 75 -6 10 -72 59 -146 108 -211 141 -326 245
-486 438 -61 72 -78 87 -102 87 -16 0 -36 -7 -44 -16z"/>
<path d="M692 2038 c-19 -19 -14 -46 9 -59 18 -9 25 -7 41 9 16 16 18 23 9 41
-13 23 -40 28 -59 9z"/>
<path d="M774 1915 c-7 -18 3 -35 21 -35 18 0 26 25 12 39 -15 15 -27 14 -33
-4z"/>
<path d="M2036 1804 c-41 -48 -86 -92 -135 -132 -50 -41 -61 -84 -36 -136 31
-65 87 -79 186 -50 51 15 59 15 127 -2 66 -16 78 -16 115 -3 84 28 98 137 26
191 -32 24 -92 82 -142 137 -23 25 -36 31 -69 31 -34 0 -46 -6 -72 -36z m31
-51 c-17 -31 -140 -173 -146 -167 -11 11 35 97 77 142 54 58 93 73 69 25z"/>
<path d="M1810 1295 c0 -4 16 -34 37 -66 24 -39 45 -62 62 -67 33 -9 487 -9
496 0 4 4 -2 30 -13 59 l-19 53 -184 -3 c-161 -2 -249 4 -351 25 -16 3 -28 3
-28 -1z"/>
<path d="M1200 300 l0 -301 63 3 62 3 5 179 5 178 125 -181 124 -181 64 0 64
0 -4 27 c-2 16 -89 151 -193 301 l-189 272 -63 0 -63 0 0 -300z"/>
<path d="M1580 422 l0 -178 60 -42 c32 -23 61 -42 65 -42 3 0 5 99 5 220 l0
220 -65 0 -65 0 0 -178z"/>
<path d="M1762 303 l3 -298 200 0 200 0 3 48 3 47 -140 0 -141 0 0 200 0 200
140 0 140 0 0 50 0 50 -205 0 -205 0 2 -297z"/>
<path d="M2222 303 l3 -298 60 0 60 0 3 88 3 87 92 0 c103 0 155 17 202 66
100 105 60 281 -77 338 -28 12 -75 16 -193 16 l-155 0 2 -297z m333 161 c34
-36 34 -93 1 -131 -23 -26 -30 -28 -115 -31 l-91 -4 0 96 0 96 90 0 c85 0 92
-2 115 -26z"/>
<path d="M2806 333 c-60 -148 -112 -272 -116 -276 -4 -5 -31 21 -59 57 -29 36
-54 66 -56 66 -12 0 -95 -56 -95 -64 0 -5 21 -33 46 -63 l46 -54 115 3 115 3
22 52 21 53 136 0 135 0 23 -55 23 -55 64 0 c35 0 64 2 64 4 0 1 -43 108 -96
237 -53 129 -98 240 -101 246 -6 15 -18 9 -67 -35 l-37 -33 40 -97 40 -97 -45
-3 c-24 -2 -64 -2 -88 0 l-44 3 74 179 c41 98 74 183 74 187 0 5 -28 9 -63 9
l-63 0 -108 -267z"/>
<path d="M1910 345 c0 -3 11 -28 25 -55 l25 -50 70 0 70 0 0 55 0 55 -95 0
c-52 0 -95 -2 -95 -5z"/>
</g>
</svg>
